<svg width="16" height="12" viewBox="0 0 16 12" fill="none" xmlns="http://www.w3.org/2000/svg">
<g clip-path="url(#clip0_425_1928)">
<path d="M6.58533 6.273C6.96104 6.55366 7.46972 6.71123 8 6.71123C8.53027 6.71123 9.03895 6.55366 9.41466 6.273L15.854 1.443C15.7058 1.16499 15.45 0.926613 15.1195 0.758555C14.7891 0.590498 14.3992 0.500449 14 0.5H2C1.60077 0.500449 1.21086 0.590498 0.880445 0.758555C0.550033 0.926613 0.294242 1.16499 0.145996 1.443L6.58533 6.273Z" fill="#FFCE1E"/>
<path d="M10.3573 6.98C9.73158 7.44813 8.88383 7.71102 8 7.71102C7.11617 7.71102 6.26842 7.44813 5.64267 6.98L0 2.75V11.5H16V2.75L10.3573 6.98Z" fill="#FAE188"/>
</g>
<defs>
<clipPath id="clip0_425_1928">
<rect width="16" height="12" fill="white"/>
</clipPath>
</defs>
</svg>
