<svg width="16" height="16" viewBox="0 0 16 16" fill="none" xmlns="http://www.w3.org/2000/svg">
<g clip-path="url(#clip0_425_1922)">
<path d="M8.00016 0C6.23265 0.00194106 4.53808 0.704943 3.28826 1.95477C2.03844 3.20459 1.33544 4.89915 1.3335 6.66667C1.3335 10.188 6.9335 15.022 7.5695 15.562L8.00016 15.926L8.43083 15.562C9.06683 15.022 14.6668 10.188 14.6668 6.66667C14.6649 4.89915 13.9619 3.20459 12.7121 1.95477C11.4622 0.704943 9.76768 0.00194106 8.00016 0V0ZM8.00016 10C7.34089 10 6.69643 9.8045 6.14826 9.43823C5.6001 9.07196 5.17286 8.55136 4.92056 7.94228C4.66827 7.33319 4.60226 6.66297 4.73088 6.01637C4.8595 5.36976 5.17697 4.77582 5.64314 4.30964C6.10932 3.84347 6.70326 3.526 7.34986 3.39738C7.99647 3.26877 8.66669 3.33478 9.27577 3.58707C9.88486 3.83936 10.4055 4.2666 10.7717 4.81477C11.138 5.36293 11.3335 6.0074 11.3335 6.66667C11.3324 7.5504 10.9809 8.39763 10.356 9.02252C9.73112 9.64741 8.88389 9.99894 8.00016 10Z" fill="#FAE188"/>
<path d="M8 8.66675C9.10457 8.66675 10 7.77132 10 6.66675C10 5.56218 9.10457 4.66675 8 4.66675C6.89543 4.66675 6 5.56218 6 6.66675C6 7.77132 6.89543 8.66675 8 8.66675Z" fill="#FFCE1E"/>
</g>
<defs>
<clipPath id="clip0_425_1922">
<rect width="16" height="16" fill="white"/>
</clipPath>
</defs>
</svg>
