<svg width="24" height="25" viewBox="0 0 24 25" fill="none" xmlns="http://www.w3.org/2000/svg">
<g clip-path="url(#clip0_425_2058)">
<path d="M23.7068 22.793L17.7378 16.824C19.3644 14.8346 20.1642 12.2961 19.9716 9.73356C19.7791 7.17103 18.609 4.78053 16.7034 3.05652C14.7977 1.33251 12.3024 0.406892 9.73342 0.471123C7.16447 0.535355 4.71849 1.58452 2.9014 3.40161C1.08431 5.2187 0.0351379 7.66469 -0.029094 10.2336C-0.0933258 12.8026 0.832293 15.298 2.5563 17.2036C4.28031 19.1092 6.67081 20.2793 9.23334 20.4718C11.7959 20.6644 14.3344 19.8646 16.3238 18.238L22.2928 24.207C22.4814 24.3892 22.734 24.49 22.9962 24.4877C23.2584 24.4854 23.5092 24.3802 23.6946 24.1948C23.88 24.0094 23.9852 23.7586 23.9875 23.4964C23.9897 23.2342 23.8889 22.9816 23.7068 22.793ZM9.99978 18.5C8.41753 18.5 6.87081 18.0308 5.55522 17.1518C4.23963 16.2727 3.21425 15.0233 2.60875 13.5615C2.00324 12.0997 1.84482 10.4911 2.1535 8.93928C2.46218 7.38743 3.22411 5.96197 4.34293 4.84315C5.46175 3.72433 6.88721 2.9624 8.43906 2.65372C9.99091 2.34504 11.5994 2.50346 13.0613 3.10896C14.5231 3.71446 15.7725 4.73984 16.6515 6.05544C17.5306 7.37103 17.9998 8.91775 17.9998 10.5C17.9974 12.621 17.1538 14.6544 15.654 16.1542C14.1542 17.654 12.1208 18.4976 9.99978 18.5Z" fill="#777574"/>
</g>
<defs>
<clipPath id="clip0_425_2058">
<rect width="24" height="24" fill="white" transform="translate(0 0.5)"/>
</clipPath>
</defs>
</svg>
