<svg width="30" height="30" viewBox="0 0 30 30" fill="none" xmlns="http://www.w3.org/2000/svg">
<path d="M17.3709 15.4937L23.0987 9.77845C23.3495 9.52758 23.4904 9.18734 23.4904 8.83256C23.4904 8.47778 23.3495 8.13754 23.0987 7.88667C22.8478 7.63581 22.5076 7.49487 22.1529 7.49487C21.7982 7.49487 21.458 7.63581 21.2072 7.88667L15.4927 13.6153L9.7782 7.88667C9.52737 7.63581 9.18717 7.49487 8.83245 7.49487C8.47772 7.49487 8.13752 7.63581 7.88669 7.88667C7.63586 8.13754 7.49495 8.47778 7.49495 8.83256C7.49495 9.18734 7.63586 9.52758 7.88669 9.77845L13.6145 15.4937L7.88669 21.209C7.76184 21.3329 7.66275 21.4802 7.59512 21.6426C7.52749 21.8049 7.49268 21.979 7.49268 22.1549C7.49268 22.3308 7.52749 22.5049 7.59512 22.6673C7.66275 22.8296 7.76184 22.9769 7.88669 23.1008C8.01052 23.2257 8.15785 23.3248 8.32017 23.3924C8.48249 23.4601 8.6566 23.4949 8.83245 23.4949C9.00829 23.4949 9.1824 23.4601 9.34472 23.3924C9.50704 23.3248 9.65437 23.2257 9.7782 23.1008L15.4927 17.3722L21.2072 23.1008C21.331 23.2257 21.4783 23.3248 21.6406 23.3924C21.803 23.4601 21.9771 23.4949 22.1529 23.4949C22.3288 23.4949 22.5029 23.4601 22.6652 23.3924C22.8275 23.3248 22.9748 23.2257 23.0987 23.1008C23.2235 22.9769 23.3226 22.8296 23.3902 22.6673C23.4579 22.5049 23.4927 22.3308 23.4927 22.1549C23.4927 21.979 23.4579 21.8049 23.3902 21.6426C23.3226 21.4802 23.2235 21.3329 23.0987 21.209L17.3709 15.4937Z" fill="#333333"/>
</svg>
